<svg width="7" height="17" viewBox="0 0 7 17" fill="none" xmlns="http://www.w3.org/2000/svg">
<g clip-path="url(#clip0_1_2986)">
<path d="M6.65995 7.73454L4.17067 10.116C4.04302 10.2435 3.90118 10.3073 3.74516 10.3073C3.58913 10.3073 3.44729 10.2435 3.31964 10.116L0.830363 7.73454C0.716892 7.62114 0.660156 7.47584 0.660156 7.29865C0.660156 7.12146 0.716892 6.97617 0.830363 6.86277C1.09986 6.59344 1.37644 6.59344 1.66012 6.86277L3.74516 8.86146L5.83019 6.86277C6.11387 6.59344 6.39045 6.59344 6.65995 6.86277C6.77342 6.97617 6.83016 7.12146 6.83016 7.29865C6.83016 7.47584 6.77342 7.62114 6.65995 7.73454Z" fill="#3E445A"/>
</g>
<defs>
<clipPath id="clip0_1_2986">
<rect width="6.17" height="16.18" fill="white" transform="matrix(1 0 0 -1 0.660156 16.59)"/>
</clipPath>
</defs>
</svg>
