<svg width="23" height="23" viewBox="0 0 23 23" fill="none" xmlns="http://www.w3.org/2000/svg">
<g clip-path="url(#clip0_1_2832)">
<path d="M11.2998 0.780273C9.30514 0.780273 7.45714 1.27894 5.7558 2.27627C4.09847 3.25894 2.77847 4.57894 1.7958 6.23627C0.798471 7.93761 0.299805 9.78561 0.299805 11.7803C0.299805 13.7749 0.798471 15.6229 1.7958 17.3243C2.77847 18.9816 4.09847 20.3016 5.7558 21.2843C7.45714 22.2816 9.30514 22.7803 11.2998 22.7803C13.2945 22.7803 15.1425 22.2816 16.8438 21.2843C18.5011 20.3016 19.8211 18.9816 20.8038 17.3243C21.8011 15.6229 22.2998 13.7749 22.2998 11.7803C22.2998 9.78561 21.8011 7.93761 20.8038 6.23627C19.8211 4.57894 18.5011 3.25894 16.8438 2.27627C15.1425 1.27894 13.2945 0.780273 11.2998 0.780273ZM11.2998 21.4163C9.56914 21.4163 7.9558 20.9763 6.4598 20.0963C5.0078 19.2456 3.85647 18.0943 3.0058 16.6423C2.1258 15.1463 1.6858 13.5256 1.6858 11.7803C1.6858 10.0349 2.1258 8.41427 3.0058 6.91827C3.85647 5.46627 5.0078 4.31494 6.4598 3.46427C7.9558 2.58427 9.5728 2.14427 11.3108 2.14427C13.0488 2.14427 14.6658 2.58427 16.1618 3.46427C17.6138 4.31494 18.7651 5.46627 19.6158 6.91827C20.4958 8.41427 20.9358 10.0349 20.9358 11.7803C20.9358 13.5256 20.4958 15.1463 19.6158 16.6423C18.7651 18.0943 17.6138 19.2456 16.1618 20.0963C14.6658 20.9763 13.0451 21.4163 11.2998 21.4163ZM11.2998 11.0983C10.7425 11.0983 10.2585 10.9626 9.84781 10.6913C9.43714 10.4199 9.2318 10.0973 9.2318 9.72327C9.2318 9.34927 9.43714 9.02661 9.84781 8.75527C10.2585 8.48394 10.7425 8.34827 11.2998 8.34827C11.9451 8.34827 12.4805 8.52427 12.9058 8.87627C13.0525 9.00827 13.2211 9.07061 13.4118 9.06327C13.6025 9.05594 13.7601 8.97894 13.8848 8.83227C14.0095 8.68561 14.0645 8.51694 14.0498 8.32627C14.0351 8.13561 13.9618 7.98161 13.8298 7.86427C13.3458 7.42427 12.7298 7.14561 11.9818 7.02827V6.28027C11.9818 6.08961 11.9158 5.92827 11.7838 5.79627C11.6518 5.66427 11.4905 5.59827 11.2998 5.59827C11.1091 5.59827 10.9478 5.66427 10.8158 5.79627C10.6838 5.92827 10.6178 6.08961 10.6178 6.28027V7.02827C9.8258 7.14561 9.16947 7.45727 8.6488 7.96327C8.12814 8.46927 7.8678 9.05227 7.8678 9.71227C7.8678 10.2109 8.0218 10.6693 8.3298 11.0873C8.6378 11.5053 9.0558 11.8389 9.58381 12.0883C10.1118 12.3376 10.6838 12.4623 11.2998 12.4623C11.8571 12.4623 12.3411 12.5979 12.7518 12.8693C13.1625 13.1406 13.3678 13.4633 13.3678 13.8373C13.3678 14.2113 13.1625 14.5339 12.7518 14.8053C12.3411 15.0766 11.8571 15.2123 11.2998 15.2123C10.6545 15.2123 10.1191 15.0363 9.6938 14.6843C9.54714 14.5523 9.37847 14.4899 9.1878 14.4973C8.99714 14.5046 8.83947 14.5816 8.7148 14.7283C8.59014 14.8749 8.53514 15.0436 8.5498 15.2343C8.56447 15.4249 8.64514 15.5789 8.7918 15.6963C9.24647 16.1363 9.85514 16.4149 10.6178 16.5323V17.2803C10.6178 17.4709 10.6838 17.6323 10.8158 17.7643C10.9478 17.8963 11.1091 17.9623 11.2998 17.9623C11.4905 17.9623 11.6518 17.8963 11.7838 17.7643C11.9158 17.6323 11.9818 17.4709 11.9818 17.2803V16.5323C12.7738 16.4149 13.4301 16.1033 13.9508 15.5973C14.4715 15.0913 14.7318 14.5083 14.7318 13.8483C14.7318 13.3496 14.5778 12.8913 14.2698 12.4733C13.9618 12.0553 13.5438 11.7216 13.0158 11.4723C12.4878 11.2229 11.9158 11.0983 11.2998 11.0983Z" fill="#202435"/>
</g>
<defs>
<clipPath id="clip0_1_2832">
<rect width="22" height="22" fill="white" transform="matrix(1 0 0 -1 0.299805 22.7803)"/>
</clipPath>
</defs>
</svg>
