<svg width="23" height="23" viewBox="0 0 23 23" fill="none" xmlns="http://www.w3.org/2000/svg">
<g clip-path="url(#clip0_1_2824)">
<path d="M16.8102 13.8481C16.3115 13.8481 15.8495 13.9727 15.4242 14.2221C14.9989 14.4714 14.6615 14.8124 14.4122 15.2451C14.1629 15.6777 14.0382 16.1434 14.0382 16.6421C14.0382 17.1407 14.1629 17.6027 14.4122 18.0281C14.6615 18.4534 14.9989 18.7907 15.4242 19.0401C15.8495 19.2894 16.3115 19.4141 16.8102 19.4141C17.3089 19.4141 17.7709 19.2894 18.1962 19.0401C18.6215 18.7907 18.9589 18.4534 19.2082 18.0281C19.4575 17.6027 19.5822 17.1407 19.5822 16.6421C19.5822 16.1434 19.4575 15.6814 19.2082 15.2561C18.9589 14.8307 18.6215 14.4897 18.1962 14.2331C17.7709 13.9764 17.3089 13.8481 16.8102 13.8481ZM16.8102 18.0281C16.4435 18.0281 16.1209 17.8887 15.8422 17.6101C15.5635 17.3314 15.4242 17.0051 15.4242 16.6311C15.4242 16.2571 15.5599 15.9344 15.8312 15.6631C16.1025 15.3917 16.4289 15.2561 16.8102 15.2561C17.1915 15.2561 17.5179 15.3917 17.7892 15.6631C18.0605 15.9344 18.1962 16.2607 18.1962 16.6421C18.1962 17.0234 18.0605 17.3497 17.7892 17.6211C17.5179 17.8924 17.1915 18.0281 16.8102 18.0281ZM7.3502 13.8481C6.85153 13.8481 6.38953 13.9727 5.9642 14.2221C5.53886 14.4714 5.20153 14.8124 4.9522 15.2451C4.70286 15.6777 4.5782 16.1434 4.5782 16.6421C4.5782 17.1407 4.70286 17.6027 4.9522 18.0281C5.20153 18.4534 5.53886 18.7907 5.9642 19.0401C6.38953 19.2894 6.85153 19.4141 7.3502 19.4141C7.84886 19.4141 8.31086 19.2894 8.7362 19.0401C9.16153 18.7907 9.49886 18.4534 9.7482 18.0281C9.99753 17.6027 10.1222 17.1407 10.1222 16.6421C10.1222 16.1434 9.99753 15.6814 9.7482 15.2561C9.49886 14.8307 9.16153 14.4897 8.7362 14.2331C8.31086 13.9764 7.84886 13.8481 7.3502 13.8481ZM7.3502 18.0281C6.96886 18.0281 6.64253 17.8924 6.3712 17.6211C6.09986 17.3497 5.9642 17.0234 5.9642 16.6421C5.9642 16.2607 6.09986 15.9344 6.3712 15.6631C6.64253 15.3917 6.96886 15.2561 7.3502 15.2561C7.73153 15.2561 8.05786 15.3917 8.3292 15.6631C8.60053 15.9344 8.7362 16.2571 8.7362 16.6311C8.7362 17.0051 8.60053 17.3314 8.3292 17.6101C8.05786 17.8887 7.73153 18.0281 7.3502 18.0281ZM18.6802 5.92806C18.6215 5.81073 18.5372 5.7154 18.4272 5.64206C18.3172 5.56873 18.1962 5.53206 18.0642 5.53206H14.4122V6.91806H17.6462L19.5162 10.6801L20.7702 10.0641L18.6802 5.92806ZM5.2602 15.9601H2.8622C2.67153 15.9601 2.50653 16.0261 2.3672 16.1581C2.22786 16.2901 2.1582 16.4551 2.1582 16.6531C2.1582 16.8511 2.22786 17.0161 2.3672 17.1481C2.50653 17.2801 2.67153 17.3461 2.8622 17.3461H5.2602C5.45086 17.3461 5.61586 17.2801 5.7552 17.1481C5.89453 17.0161 5.9642 16.8547 5.9642 16.6641C5.9642 16.4734 5.89453 16.3084 5.7552 16.1691C5.61586 16.0297 5.45086 15.9601 5.2602 15.9601ZM22.0462 11.7141L20.6822 9.97606C20.5355 9.7854 20.3595 9.69006 20.1542 9.69006H15.1162V4.85006C15.1162 4.6594 15.0465 4.4944 14.9072 4.35506C14.7679 4.21573 14.6029 4.14606 14.4122 4.14606H2.8622C2.67153 4.14606 2.50653 4.21206 2.3672 4.34406C2.22786 4.47606 2.1582 4.64106 2.1582 4.83906C2.1582 5.03706 2.2242 5.20206 2.3562 5.33406C2.4882 5.46606 2.65686 5.53206 2.8622 5.53206H13.7302V10.3941C13.7302 10.5847 13.7962 10.7461 13.9282 10.8781C14.0602 11.0101 14.2215 11.0761 14.4122 11.0761H19.8022L20.8142 12.3961V15.9601H18.9002C18.7095 15.9601 18.5445 16.0261 18.4052 16.1581C18.2659 16.2901 18.1962 16.4551 18.1962 16.6531C18.1962 16.8511 18.2659 17.0161 18.4052 17.1481C18.5445 17.2801 18.7095 17.3461 18.9002 17.3461H21.5182C21.7089 17.3461 21.8702 17.2801 22.0022 17.1481C22.1342 17.0161 22.2002 16.8547 22.2002 16.6641V12.1541C22.2002 11.9781 22.1489 11.8314 22.0462 11.7141ZM5.2162 12.4401H2.0262C1.83553 12.4401 1.6742 12.5097 1.5422 12.6491C1.4102 12.7884 1.3442 12.9534 1.3442 13.1441C1.3442 13.3347 1.4102 13.4961 1.5422 13.6281C1.6742 13.7601 1.83553 13.8261 2.0262 13.8261H5.2162C5.40686 13.8261 5.57186 13.7601 5.7112 13.6281C5.85053 13.4961 5.9202 13.3347 5.9202 13.1441C5.9202 12.9534 5.85053 12.7884 5.7112 12.6491C5.57186 12.5097 5.40686 12.4401 5.2162 12.4401ZM6.8002 9.71206H0.904195C0.713529 9.71206 0.548529 9.78173 0.409195 9.92106C0.269862 10.0604 0.200195 10.2254 0.200195 10.4161C0.200195 10.6067 0.269862 10.7681 0.409195 10.9001C0.548529 11.0321 0.713529 11.0981 0.904195 11.0981H6.8002C6.99086 11.0981 7.15586 11.0321 7.2952 10.9001C7.43453 10.7681 7.5042 10.6067 7.5042 10.4161C7.5042 10.2254 7.43453 10.0604 7.2952 9.92106C7.15586 9.78173 6.99086 9.71206 6.8002 9.71206ZM7.9442 7.00606H2.0262C1.83553 7.00606 1.6742 7.07206 1.5422 7.20406C1.4102 7.33606 1.3442 7.4974 1.3442 7.68806C1.3442 7.87873 1.4102 8.04373 1.5422 8.18306C1.6742 8.3224 1.83553 8.39206 2.0262 8.39206H7.9442C8.13486 8.39206 8.2962 8.3224 8.42819 8.18306C8.56019 8.04373 8.62619 7.87873 8.62619 7.68806C8.62619 7.4974 8.56019 7.33606 8.42819 7.20406C8.2962 7.07206 8.13486 7.00606 7.9442 7.00606Z" fill="#202435"/>
</g>
<defs>
<clipPath id="clip0_1_2824">
<rect width="22" height="22" fill="white" transform="matrix(1 0 0 -1 0.200195 22.7803)"/>
</clipPath>
</defs>
</svg>
