<svg width="23" height="23" viewBox="0 0 23 23" fill="none" xmlns="http://www.w3.org/2000/svg">
<g clip-path="url(#clip0_1_2828)">
<path d="M21.1879 12.0663C21.0853 11.8756 21.0853 11.6849 21.1879 11.4943L22.0019 9.82227C22.2366 9.35294 22.2733 8.87261 22.1119 8.38127C21.9506 7.88994 21.6353 7.51961 21.1659 7.27027L19.5159 6.41227C19.3253 6.30961 19.2153 6.15561 19.1859 5.95027L18.8559 4.10227C18.7679 3.58894 18.5149 3.18194 18.0969 2.88127C17.6789 2.58061 17.2133 2.46694 16.6999 2.54027L14.8519 2.80427C14.6466 2.83361 14.4706 2.77494 14.3239 2.62827L12.9819 1.33027C12.6153 0.963608 12.1716 0.780273 11.6509 0.780273C11.1303 0.780273 10.6793 0.963608 10.2979 1.33027L8.95593 2.62827C8.80926 2.77494 8.63326 2.83361 8.42793 2.80427L6.57993 2.54027C6.0666 2.46694 5.60093 2.58061 5.18293 2.88127C4.76493 3.18194 4.51193 3.58894 4.42393 4.10227L4.09393 5.95027C4.0646 6.15561 3.9546 6.30961 3.76393 6.41227L2.11393 7.27027C1.6446 7.51961 1.32926 7.88994 1.16793 8.38127C1.0066 8.87261 1.04326 9.35294 1.27793 9.82227L2.11393 11.4943C2.2166 11.6849 2.2166 11.8756 2.11393 12.0663L1.27793 13.7383C1.04326 14.2076 1.0066 14.6843 1.16793 15.1683C1.32926 15.6523 1.6446 16.0189 2.11393 16.2683L3.76393 17.1483C3.9546 17.2509 4.0646 17.4049 4.09393 17.6103L4.42393 19.4583C4.49726 19.9129 4.70993 20.2906 5.06193 20.5913C5.41393 20.8919 5.8246 21.0423 6.29393 21.0423C6.41126 21.0423 6.5066 21.0349 6.57993 21.0203L8.42793 20.7563C8.63326 20.7269 8.80926 20.7856 8.95593 20.9323L10.2979 22.2303C10.6646 22.5969 11.1119 22.7803 11.6399 22.7803C12.1679 22.7803 12.6153 22.5969 12.9819 22.2303L14.3239 20.9323C14.4706 20.7856 14.6466 20.7269 14.8519 20.7563L16.6999 21.0203C17.2133 21.0936 17.6789 20.9799 18.0969 20.6793C18.5149 20.3786 18.7679 19.9716 18.8559 19.4583L19.1859 17.6103C19.2153 17.4049 19.3253 17.2509 19.5159 17.1483L21.1659 16.2683C21.6353 16.0189 21.9506 15.6523 22.1119 15.1683C22.2733 14.6843 22.2366 14.2076 22.0019 13.7383L21.1879 12.0663ZM20.5719 15.1683L18.9219 16.0263C18.6579 16.1729 18.4416 16.3636 18.2729 16.5983C18.1043 16.8329 17.9906 17.0969 17.9319 17.3903L17.6239 19.2383C17.5946 19.4143 17.5066 19.5536 17.3599 19.6563C17.2133 19.7589 17.0519 19.7956 16.8759 19.7663L15.0279 19.5023C14.7493 19.4583 14.4669 19.4839 14.1809 19.5793C13.8949 19.6746 13.6493 19.8249 13.4439 20.0303L12.1019 21.3283C11.9846 21.4456 11.8343 21.5043 11.6509 21.5043C11.4676 21.5043 11.3173 21.4456 11.1999 21.3283L9.85793 20.0303C9.46193 19.6636 9.0146 19.4803 8.51593 19.4803L8.25193 19.5023L6.40393 19.7663C6.22793 19.7956 6.0666 19.7589 5.91993 19.6563C5.77326 19.5536 5.68526 19.4143 5.65593 19.2383L5.34793 17.3903C5.28926 17.0969 5.1756 16.8329 5.00693 16.5983C4.83826 16.3636 4.62193 16.1729 4.35793 16.0263L2.70793 15.1683C2.5466 15.0949 2.44026 14.9739 2.38893 14.8053C2.3376 14.6366 2.3486 14.4716 2.42193 14.3103L3.23593 12.6163C3.36793 12.3523 3.43393 12.0736 3.43393 11.7803C3.43393 11.4869 3.36793 11.2083 3.23593 10.9443L2.42193 9.25027C2.3486 9.08894 2.3376 8.92394 2.38893 8.75527C2.44026 8.58661 2.5466 8.46561 2.70793 8.39227L4.35793 7.53427C4.62193 7.38761 4.83826 7.19694 5.00693 6.96227C5.1756 6.72761 5.28926 6.46361 5.34793 6.17027L5.65593 4.32227C5.68526 4.14627 5.77326 4.00694 5.91993 3.90427C6.0666 3.80161 6.22793 3.76494 6.40393 3.79427L8.25193 4.05827C8.5306 4.10227 8.81293 4.07661 9.09893 3.98127C9.38493 3.88594 9.63793 3.73561 9.85793 3.53027L11.1999 2.23227C11.3173 2.11494 11.4676 2.05627 11.6509 2.05627C11.8343 2.05627 11.9846 2.11494 12.1019 2.23227L13.4439 3.53027C13.6493 3.73561 13.8949 3.88594 14.1809 3.98127C14.4669 4.07661 14.7493 4.10227 15.0279 4.05827L16.8759 3.79427C17.0519 3.76494 17.2133 3.80161 17.3599 3.90427C17.5066 4.00694 17.5946 4.14627 17.6239 4.32227L17.9319 6.17027C17.9906 6.46361 18.1043 6.72761 18.2729 6.96227C18.4416 7.19694 18.6579 7.38761 18.9219 7.53427L20.5719 8.39227C20.7333 8.46561 20.8396 8.58661 20.8909 8.75527C20.9423 8.92394 20.9313 9.08894 20.8579 9.25027L20.0439 10.9443C19.9119 11.2083 19.8459 11.4869 19.8459 11.7803C19.8459 12.0736 19.9119 12.3523 20.0439 12.6163L20.8579 14.3103C20.9313 14.4716 20.9423 14.6366 20.8909 14.8053C20.8396 14.9739 20.7333 15.0949 20.5719 15.1683ZM16.2819 7.13827C16.1646 7.02094 16.0143 6.96227 15.8309 6.96227C15.6476 6.96227 15.4973 7.02094 15.3799 7.13827L6.99793 15.5203C6.8806 15.6376 6.82193 15.7843 6.82193 15.9603C6.82193 16.1363 6.88426 16.2866 7.00893 16.4113C7.1336 16.5359 7.2766 16.5983 7.43793 16.5983C7.59926 16.5983 7.75326 16.5396 7.89993 16.4223L16.2819 8.04027C16.3993 7.92294 16.4579 7.77627 16.4579 7.60027C16.4579 7.42427 16.3993 7.27027 16.2819 7.13827ZM9.10993 6.06027C8.6846 6.06027 8.29226 6.16661 7.93293 6.37927C7.5736 6.59194 7.29126 6.87427 7.08593 7.22627C6.8806 7.57827 6.77793 7.96694 6.77793 8.39227C6.77793 8.81761 6.8806 9.20627 7.08593 9.55827C7.29126 9.91027 7.5736 10.1926 7.93293 10.4053C8.29226 10.6179 8.6846 10.7243 9.10993 10.7243C9.53526 10.7243 9.92393 10.6179 10.2759 10.4053C10.6279 10.1926 10.9066 9.91027 11.1119 9.55827C11.3173 9.20627 11.4199 8.81761 11.4199 8.39227C11.4199 7.96694 11.3173 7.57827 11.1119 7.22627C10.9066 6.87427 10.6243 6.59194 10.2649 6.37927C9.9056 6.16661 9.5206 6.06027 9.10993 6.06027ZM9.10993 9.44827C8.8166 9.44827 8.56726 9.34561 8.36193 9.14027C8.1566 8.93494 8.05393 8.68561 8.05393 8.39227C8.05393 8.09894 8.1566 7.84961 8.36193 7.64427C8.56726 7.43894 8.8166 7.33627 9.10993 7.33627C9.40326 7.33627 9.6526 7.43894 9.85793 7.64427C10.0633 7.84961 10.1659 8.09894 10.1659 8.39227C10.1659 8.68561 10.0633 8.93494 9.85793 9.14027C9.6526 9.34561 9.40326 9.44827 9.10993 9.44827ZM14.1699 12.8363C13.7446 12.8363 13.3559 12.9389 13.0039 13.1443C12.6519 13.3496 12.3733 13.6319 12.1679 13.9913C11.9626 14.3506 11.8599 14.7429 11.8599 15.1683C11.8599 15.8136 12.0836 16.3599 12.5309 16.8073C12.9783 17.2546 13.5246 17.4783 14.1699 17.4783C14.5953 17.4783 14.9876 17.3756 15.3469 17.1703C15.7063 16.9649 15.9886 16.6863 16.1939 16.3343C16.3993 15.9823 16.5019 15.5936 16.5019 15.1683C16.5019 14.7429 16.3993 14.3543 16.1939 14.0023C15.9886 13.6503 15.7063 13.3679 15.3469 13.1553C14.9876 12.9426 14.5953 12.8363 14.1699 12.8363ZM14.1699 16.2243C13.8913 16.2243 13.6456 16.1179 13.4329 15.9053C13.2203 15.6926 13.1139 15.4433 13.1139 15.1573C13.1139 14.8713 13.2203 14.6256 13.4329 14.4203C13.6456 14.2149 13.8949 14.1123 14.1809 14.1123C14.4669 14.1123 14.7126 14.2149 14.9179 14.4203C15.1233 14.6256 15.2259 14.8749 15.2259 15.1683C15.2259 15.4616 15.1233 15.7109 14.9179 15.9163C14.7126 16.1216 14.4633 16.2243 14.1699 16.2243Z" fill="#202435"/>
</g>
<defs>
<clipPath id="clip0_1_2828">
<rect width="22" height="22" fill="white" transform="matrix(1 0 0 -1 0.640137 22.7803)"/>
</clipPath>
</defs>
</svg>
