<svg width="23" height="23" viewBox="0 0 23 23" fill="none" xmlns="http://www.w3.org/2000/svg">
<g clip-path="url(#clip0_1_2820)">
<path d="M14.9101 10.2623V8.15027L13.2161 4.21227V0.780273H3.40407V4.21227L1.62207 8.15027V22.7803H21.3781V10.2623H14.9101ZM18.1661 18.8423C17.7847 18.5049 17.3521 18.3363 16.8681 18.3363C16.3841 18.3363 15.9514 18.5049 15.5701 18.8423C15.2034 18.5049 14.7781 18.3363 14.2941 18.3363C14.1034 18.3363 13.8834 18.3729 13.6341 18.4463V14.5523H20.1021V18.4463C19.8527 18.3729 19.6327 18.3363 19.4421 18.3363C18.9581 18.3363 18.5327 18.5049 18.1661 18.8423ZM20.1021 13.2543H13.6341V11.5603H20.1021V13.2543ZM12.3581 10.2623V18.9303H2.89807V8.94227H13.6121V10.2623H12.3581ZM13.2821 7.64427H3.27207L4.46007 4.98227H12.1381L13.2821 7.64427ZM4.70207 2.07827H11.9181V3.70627H4.70207V2.07827ZM2.89807 21.4823V20.2283H12.3581V21.4823H2.89807ZM13.6341 21.4823V20.2723C13.6341 20.0963 13.7001 19.9459 13.8321 19.8213C13.9641 19.6966 14.1181 19.6343 14.2941 19.6343C14.4701 19.6343 14.6204 19.6966 14.7451 19.8213C14.8697 19.9459 14.9321 20.0963 14.9321 20.2723V21.4823H13.6341ZM16.2301 21.4823V20.2723C16.2301 20.0963 16.2924 19.9459 16.4171 19.8213C16.5417 19.6966 16.6921 19.6343 16.8681 19.6343C17.0441 19.6343 17.1944 19.6966 17.3191 19.8213C17.4437 19.9459 17.5061 20.0963 17.5061 20.2723V21.4823H16.2301ZM20.1021 21.4823H18.8041V20.2723C18.8041 20.0963 18.8664 19.9459 18.9911 19.8213C19.1157 19.6966 19.2661 19.6343 19.4421 19.6343C19.6181 19.6343 19.7721 19.6966 19.9041 19.8213C20.0361 19.9459 20.1021 20.0963 20.1021 20.2723V21.4823Z" fill="#202435"/>
</g>
<defs>
<clipPath id="clip0_1_2820">
<rect width="22" height="22" fill="white" transform="matrix(1 0 0 -1 0.5 22.7803)"/>
</clipPath>
</defs>
</svg>
