<svg width="21" height="21" viewBox="0 0 21 21" fill="none" xmlns="http://www.w3.org/2000/svg">
<g clip-path="url(#clip0_1_2977)">
<path d="M20.5198 10.4L15.9398 8.86C15.8465 8.82 15.7531 8.82 15.6598 8.86L11.0798 10.4C10.9998 10.4267 10.9331 10.4767 10.8798 10.55C10.8265 10.6233 10.7998 10.7067 10.7998 10.8V14.28C10.7998 15.4933 11.2065 16.6267 12.0198 17.68C12.5931 18.44 13.3531 19.1267 14.2998 19.74C14.8198 20.0733 15.2665 20.3133 15.6398 20.46C15.6798 20.4867 15.7365 20.5 15.8098 20.5C15.8831 20.5 15.9331 20.4933 15.9598 20.48L15.9998 20.46C16.9731 20.0067 17.8398 19.44 18.5998 18.76C20.0665 17.44 20.7998 15.9467 20.7998 14.28V10.8C20.7998 10.7067 20.7731 10.6233 20.7198 10.55C20.6665 10.4767 20.5998 10.4267 20.5198 10.4ZM19.9598 14.28C19.9598 15.2267 19.6598 16.1267 19.0598 16.98C18.6065 17.62 17.9998 18.2133 17.2398 18.76C16.7598 19.1067 16.2798 19.3933 15.7998 19.62C14.9065 19.18 14.1131 18.64 13.4198 18C12.2331 16.8667 11.6398 15.6267 11.6398 14.28V11.1L15.7998 9.7L19.9598 11.1V14.28ZM15.4198 15.3L17.9998 12.7C18.0798 12.62 18.1765 12.58 18.2898 12.58C18.4031 12.58 18.5065 12.62 18.5998 12.7C18.6931 12.78 18.7365 12.88 18.7298 13C18.7231 13.12 18.6798 13.22 18.5998 13.3L15.6798 16.22C15.5998 16.3 15.4998 16.34 15.3798 16.34H15.3598C15.2265 16.3133 15.1265 16.26 15.0598 16.18L13.3998 14.1C13.3198 14.0067 13.2865 13.9033 13.2998 13.79C13.3131 13.6767 13.3665 13.5833 13.4598 13.51C13.5531 13.4367 13.6565 13.4067 13.7698 13.42C13.8831 13.4333 13.9731 13.4867 14.0398 13.58L15.4198 15.3ZM11.7798 20.04C11.7798 20.16 11.7398 20.2633 11.6598 20.35C11.5798 20.4367 11.4798 20.4833 11.3598 20.49C11.2398 20.4967 11.0531 20.5 10.7998 20.5H8.7198C7.50647 20.4867 6.46314 20.0533 5.5898 19.2C4.71647 18.3467 3.9598 17.02 3.3198 15.22C2.9998 14.3267 2.6598 13.6067 2.2998 13.06C2.07314 12.74 1.79314 12.4267 1.4598 12.12C1.24647 11.9333 1.09314 11.7733 0.999805 11.64C0.866471 11.4267 0.799805 11.1867 0.799805 10.92C0.799805 10.6533 0.899805 10.4133 1.0998 10.2C1.44647 9.84 2.0398 9.66 2.8798 9.66C3.45314 9.66 4.0198 9.83333 4.5798 10.18C5.00647 10.46 5.41314 10.8267 5.7998 11.28V3C5.7998 2.53333 5.96314 2.14 6.2898 1.82C6.61647 1.5 7.00647 1.34 7.4598 1.34C7.79314 1.34 8.10647 1.43333 8.3998 1.62C8.50647 1.28667 8.70314 1.01667 8.9898 0.810001C9.27647 0.603334 9.5998 0.5 9.9598 0.5C10.3198 0.5 10.6465 0.603334 10.9398 0.810001C11.2331 1.01667 11.4331 1.28667 11.5398 1.62C11.8065 1.43333 12.1131 1.34 12.4598 1.34C12.9265 1.34 13.3231 1.50333 13.6498 1.83C13.9765 2.15667 14.1398 2.54667 14.1398 3V4.06C14.3931 3.91333 14.6665 3.84 14.9598 3.84C15.4265 3.84 15.8231 4.00333 16.1498 4.33C16.4765 4.65667 16.6398 5.04667 16.6398 5.5V6.8C16.6398 6.90667 16.5965 7 16.5098 7.08C16.4231 7.16 16.3265 7.2 16.2198 7.2C16.1131 7.2 16.0165 7.16 15.9298 7.08C15.8431 7 15.7998 6.90667 15.7998 6.8V5.5C15.7998 5.27333 15.7165 5.07667 15.5498 4.91C15.3831 4.74333 15.1865 4.66 14.9598 4.66C14.7331 4.66 14.5398 4.74333 14.3798 4.91C14.2198 5.07667 14.1398 5.27333 14.1398 5.5V7.32C14.1398 7.42667 14.0965 7.52333 14.0098 7.61C13.9231 7.69667 13.8265 7.74 13.7198 7.74C13.6131 7.74 13.5165 7.69667 13.4298 7.61C13.3431 7.52333 13.2998 7.42667 13.2998 7.32V3C13.2998 2.77333 13.2165 2.57667 13.0498 2.41C12.8831 2.24333 12.6865 2.16 12.4598 2.16C12.2331 2.16 12.0398 2.24333 11.8798 2.41C11.7198 2.57667 11.6398 2.77333 11.6398 3V8.16C11.6398 8.26667 11.5965 8.36333 11.5098 8.45C11.4231 8.53667 11.3265 8.58 11.2198 8.58C11.1131 8.58 11.0165 8.53667 10.9298 8.45C10.8431 8.36333 10.7998 8.26667 10.7998 8.16V2.16C10.7998 1.93333 10.7165 1.74 10.5498 1.58C10.3831 1.42 10.1865 1.34 9.9598 1.34C9.73314 1.34 9.5398 1.42 9.3798 1.58C9.2198 1.74 9.1398 1.93333 9.1398 2.16V10.08C9.1398 10.2 9.09647 10.3 9.0098 10.38C8.92314 10.46 8.82647 10.5 8.7198 10.5C8.61314 10.5 8.51647 10.46 8.4298 10.38C8.34314 10.3 8.2998 10.2 8.2998 10.08V3C8.2998 2.77333 8.21647 2.57667 8.0498 2.41C7.88314 2.24333 7.68647 2.16 7.4598 2.16C7.23314 2.16 7.0398 2.24333 6.8798 2.41C6.7198 2.57667 6.6398 2.77333 6.6398 3V12.58C6.6398 12.6733 6.6098 12.7567 6.5498 12.83C6.4898 12.9033 6.41314 12.9533 6.3198 12.98C6.22647 13.0067 6.13647 13 6.0498 12.96C5.96314 12.92 5.8998 12.86 5.8598 12.78L5.8398 12.74C5.5598 12.2867 5.24647 11.88 4.8998 11.52C4.23314 10.84 3.5598 10.5 2.8798 10.5C2.46647 10.5 2.1398 10.5533 1.8998 10.66C1.72647 10.74 1.6398 10.83 1.6398 10.93C1.6398 11.03 1.66314 11.1167 1.7098 11.19C1.75647 11.2633 1.8598 11.3733 2.0198 11.52C2.39314 11.8667 2.6998 12.2133 2.9398 12.56C3.3798 13.1733 3.76647 13.9667 4.0998 14.94C4.68647 16.5533 5.35314 17.7433 6.0998 18.51C6.84647 19.2767 7.7198 19.66 8.7198 19.66H11.3398C11.4465 19.6467 11.5431 19.6767 11.6298 19.75C11.7165 19.8233 11.7665 19.92 11.7798 20.04Z" fill="#3E445A"/>
</g>
<defs>
<clipPath id="clip0_1_2977">
<rect width="20" height="20" fill="white" transform="matrix(1 0 0 -1 0.799805 20.5)"/>
</clipPath>
</defs>
</svg>
